<?xml version="1.0" standalone="no"?><!DOCTYPE svg PUBLIC "-//W3C//DTD SVG 1.1//EN" "http://www.w3.org/Graphics/SVG/1.1/DTD/svg11.dtd"><svg t="1751005313475" class="icon" viewBox="0 0 1024 1024" version="1.1" xmlns="http://www.w3.org/2000/svg" p-id="41606" xmlns:xlink="http://www.w3.org/1999/xlink" width="200" height="200"><path d="M584.6 828.9h65.2v-97.8H715v-81.5h130.3v81.5h48.9v97.8h65.2V486.8H584.6v342.1z m-521.3 0h32.6V486.8H63.3v342.1z m359.2-616.1c0.4 0.2 0.8 0.3 1.2 0.5 1.2 0.5 2.3 1 3.5 1.5 0.4 0.2 0.8 0.3 1.2 0.5 3.7 1.6 7.4 3.3 11 5.1 0.4 0.2 0.8 0.4 1.1 0.6 1.2 0.6 2.3 1.2 3.5 1.8 0.1 0 0.1 0.1 0.2 0.1 2.5 1.3 5 2.6 7.4 4l0.6 0.3c1.2 0.7 2.3 1.3 3.5 2 0.3 0.2 0.5 0.3 0.8 0.5 3.6 2.1 7.2 4.4 10.7 6.7 0.2 0.1 0.4 0.3 0.6 0.4 4.9 3.2 9.7 6.6 14.3 10.2 0.1 0.1 0.2 0.2 0.4 0.3 3.5 2.7 6.9 5.4 10.3 8.3l0.1 0.1c4.5 3.9 9 7.9 13.2 12.1l0.1 0.1c7.5 7.3 14.5 15 21 23.2l0.2 0.2c35.9 44.7 57.4 101.4 57.4 163.1h374.8c0-135-109.4-244.4-244.4-244.4H414.8c2.6 0.7 5.1 1.8 7.7 2.8z m-114.9-3c-135 0-244.4 109.4-244.4 244.4H552c0-135-109.4-244.4-244.4-244.4z m212 619.1h32.6V486.8h-32.6v342.1zM666 812.6h97.8v-65.2H666v65.2z m114.1 0h97.8v-65.2h-97.8v65.2z m-669 16.3h391V486.8h-391v342.1z m65.2-293.2H437v48.9H176.3v-48.9z m0 97.7H437v48.9H176.3v-48.9z m0 97.8H437v48.9H176.3v-48.9zM829 666h-97.8v65.2H829V666z" fill="#cb7c28" p-id="41607"></path></svg>