<?xml version="1.0" standalone="no"?><!DOCTYPE svg PUBLIC "-//W3C//DTD SVG 1.1//EN" "http://www.w3.org/Graphics/SVG/1.1/DTD/svg11.dtd"><svg t="1751005351753" class="icon" viewBox="0 0 1024 1024" version="1.1" xmlns="http://www.w3.org/2000/svg" p-id="44161" xmlns:xlink="http://www.w3.org/1999/xlink" width="200" height="200"><path d="M512 85.333333c187.733333 0 341.333333 153.6 341.333333 341.333334v512H170.666667V426.666667c0-187.733333 153.6-341.333333 341.333333-341.333334m0-85.333333C277.333333 0 85.333333 192 85.333333 426.666667v597.333333h853.333334V426.666667c0-234.666667-192-426.666667-426.666667-426.666667z" fill="#3FD895" p-id="44162"></path><path d="M170.666667 341.333333h682.666666v85.333334H170.666667zM469.333333 42.666667h85.333334v298.666666h-85.333334zM298.666667 85.333333h85.333333v256H298.666667zM640 85.333333h85.333333v256h-85.333333zM512 640c46.933333 0 85.333333 38.4 85.333333 85.333333v213.333334h-170.666666v-213.333334c0-46.933333 38.4-85.333333 85.333333-85.333333m0-85.333333c-93.866667 0-170.666667 76.8-170.666667 170.666666v298.666667h341.333334v-298.666667c0-93.866667-76.8-170.666667-170.666667-170.666666z" fill="#3FD895" p-id="44163"></path></svg>