<?xml version="1.0" standalone="no"?><!DOCTYPE svg PUBLIC "-//W3C//DTD SVG 1.1//EN" "http://www.w3.org/Graphics/SVG/1.1/DTD/svg11.dtd"><svg t="1751004836036" class="icon" viewBox="0 0 1024 1024" version="1.1" xmlns="http://www.w3.org/2000/svg" p-id="20382" xmlns:xlink="http://www.w3.org/1999/xlink" width="200" height="200"><path d="M899.413333 764.586667c-10.24 3.413333-20.48 8.533333-30.72 11.946666 5.12-18.773333-22.186667-32.426667-49.493333-22.186666-6.826667 1.706667-13.653333 5.12-20.48 8.533333 1.706667-20.48-25.6-34.133333-64.853333-17.066667-10.24 3.413333-68.266667 35.84-87.04 44.373334 34.133333 10.24 66.56 32.426667 59.733333 71.68-5.12 27.306667-25.6 49.493333-52.906667 49.493333-109.226667 3.413333-153.6 6.826667-223.573333-23.893333-30.72-13.653333-47.786667-42.666667-61.44-73.386667 119.466667 75.093333 145.066667 66.56 283.306667 63.146667 8.533333 0 22.186667-6.826667 22.186666-22.186667 0-32.426667-25.6-39.253333-71.68-47.786667-39.253333-6.826667-73.386667-5.12-104.106666-32.426666-100.693333-92.16-194.56-107.52-312.32-51.2-34.133333 15.36-66.56 35.84-98.986667 54.613333v167.253333c44.373333-15.36 95.573333-34.133333 139.946667-44.373333 18.773333-5.12 37.546667 0 54.613333 10.24 117.76 63.146667 124.586667 61.44 256 83.626667 17.066667 3.413333 32.426667 1.706667 49.493333-3.413334 167.253333-51.2 180.906667-58.026667 349.866667-163.84 54.613333-30.72 20.48-87.04-37.546667-63.146666zM773.12 431.786667c8.533333-32.426667 13.653333-66.56 13.653333-102.4 0-22.186667-1.706667-44.373333-5.12-66.56-3.413333-22.186667-8.533333-42.666667-15.36-61.44l-177.493333 126.293333 184.32 104.106667zM581.973333 155.306667c-6.826667 0-13.653333 1.706667-18.773333 6.826666-5.12 5.12-6.826667 11.946667-6.826667 18.773334 0 6.826667 1.706667 13.653333 6.826667 18.773333 5.12 5.12 11.946667 6.826667 18.773333 6.826667s13.653333-1.706667 18.773334-6.826667c5.12-5.12 6.826667-11.946667 6.826666-18.773333 0-6.826667-1.706667-13.653333-6.826666-18.773334-5.12-5.12-10.24-6.826667-18.773334-6.826666zM508.586667 155.306667c-6.826667 0-13.653333 1.706667-18.773334 6.826666-5.12 5.12-6.826667 11.946667-6.826666 18.773334 0 6.826667 1.706667 13.653333 6.826666 18.773333 5.12 5.12 11.946667 6.826667 18.773334 6.826667 6.826667 0 13.653333-1.706667 18.773333-6.826667 5.12-5.12 8.533333-11.946667 8.533333-18.773333 0-6.826667-3.413333-13.653333-8.533333-18.773334-5.12-5.12-11.946667-6.826667-18.773333-6.826666zM375.466667 549.546667c22.186667 29.013333 47.786667 51.2 76.8 66.56 29.013333 17.066667 59.733333 23.893333 93.866666 23.893333 23.893333 0 47.786667-5.12 69.973334-13.653333 22.186667-8.533333 42.666667-20.48 61.44-37.546667 18.773333-15.36 35.84-34.133333 51.2-56.32 15.36-22.186667 27.306667-46.08 37.546666-73.386667L320.853333 215.04c-5.12 17.066667-10.24 35.84-11.946666 54.613333-3.413333 18.773333-3.413333 39.253333-3.413334 59.733334 0 42.666667 6.826667 83.626667 18.773334 121.173333 11.946667 37.546667 29.013333 71.68 51.2 98.986667z" fill="#000999" p-id="20383"></path><path d="M558.08 310.613333l194.56-138.24c-10.24-23.893333-23.893333-44.373333-37.546667-63.146666-15.36-18.773333-30.72-35.84-47.786666-49.493334-17.066667-13.653333-37.546667-23.893333-58.026667-30.72-20.48-8.533333-40.96-11.946667-63.146667-11.946666-23.893333 0-46.08 3.413333-66.56 11.946666-22.186667 8.533333-40.96 20.48-59.733333 34.133334-18.773333 15.36-34.133333 32.426667-49.493333 52.906666-15.36 20.48-27.306667 42.666667-37.546667 68.266667l226.986667 126.293333h-1.706667z m-141.653333-121.173333c8.533333-18.773333 18.773333-35.84 32.426666-49.493333 5.12-6.826667 11.946667-11.946667 18.773334-18.773334 6.826667-6.826667 13.653333-11.946667 22.186666-15.36 8.533333-5.12 17.066667-8.533333 27.306667-11.946666 10.24-3.413333 20.48-5.12 32.426667-5.12s23.893333 1.706667 34.133333 3.413333c10.24 3.413333 20.48 6.826667 29.013333 11.946667 8.533333 5.12 15.36 10.24 22.186667 15.36 6.826667 5.12 11.946667 11.946667 17.066667 18.773333 11.946667 15.36 20.48 30.72 27.306666 49.493333l-126.293333 83.626667-136.533333-81.92z" fill="#000999" p-id="20384"></path></svg>