<?xml version="1.0" standalone="no"?><!DOCTYPE svg PUBLIC "-//W3C//DTD SVG 1.1//EN" "http://www.w3.org/Graphics/SVG/1.1/DTD/svg11.dtd"><svg t="1751004926745" class="icon" viewBox="0 0 1024 1024" version="1.1" xmlns="http://www.w3.org/2000/svg" p-id="22797" xmlns:xlink="http://www.w3.org/1999/xlink" width="200" height="200"><path d="M512 0c282.76736 0 512 229.23264 512 512s-229.23264 512-512 512S0 794.76736 0 512 229.23264 0 512 0z m251.1872 440.32a11.45856 11.45856 0 0 0-10.31168 7.14752c-0.17408 1.1264-0.17408 2.2528 0 3.3792l-6.49216 32.72704c-3.072 18.65728-19.02592 32.63488-38.21568 33.46432a66.304 66.304 0 0 0-9.54368-1.50528 47.12448 47.12448 0 0 0-26.368-8.27392H555.33568a73.48224 73.48224 0 0 0-27.12576 7.5264 37.7344 37.7344 0 0 0-4.9664 6.01088c-19.18976-0.8192-35.14368-14.80704-38.20544-33.46432l-6.88128-34.97984a11.56096 11.56096 0 0 0-3.328-8.48896 11.93984 11.93984 0 0 0-8.51968-3.54304l-4.1984 23.31648-16.42496 89.4976a33.52576 33.52576 0 0 0 9.8304 27.93472 34.7136 34.7136 0 0 0 28.3648 9.6768h30.19776v12.04224l-25.6 8.64256c-16.92672 7.168-26.24512 25.1904-22.1696 42.87488v1.88416l43.56096-13.9264c-0.98304 5.87776 0.5632 11.8784 4.25984 16.5888 3.6864 4.7104 9.216 7.69024 15.22688 8.2432l8.3968 40.2432 8.02816 42.86464v24.064c-0.03072 12.8 9.96352 23.47008 22.9376 24.45312h88.63744c12.88192-1.15712 22.784-11.71456 22.92736-24.44288v-16.1792l9.9328-52.26496 7.63904-37.61152a21.504 21.504 0 0 0 15.37024-8.13056c3.72736-4.73088 5.2224-10.8032 4.11648-16.6912l40.4992 13.16864v-1.88416c5.632-18.42176-3.76832-38.05184-21.78048-45.50656l-23.30624-7.89504v-13.16864h32.09216a34.33472 34.33472 0 0 0 28.54912-9.50272 33.14688 33.14688 0 0 0 9.66656-28.09856l-14.8992-88.3712L763.1872 440.32z m-68.93568-215.04a16.4352 16.4352 0 0 0-14.90944 9.9328 12.3904 12.3904 0 0 0 0 4.78208v1.8432l-9.56416 45.9776c-4.52608 27.24864-29.05088 47.24736-57.73312 47.08352h-4.1984a70.36928 70.36928 0 0 0-5.7344-7.72096 67.19488 67.19488 0 0 0-38.2464-11.40736H397.54752a112.2816 112.2816 0 0 0-38.23616 10.30144 92.34432 92.34432 0 0 0-6.88128 8.82688c-28.89728 0.512-53.72928-19.6096-58.12224-47.08352l-9.9328-48.92672c-1.28-7.64928-8.01792-13.35296-16.06656-13.60896l-5.7344 32.36864-21.79072 123.5968a45.74208 45.74208 0 0 0 14.45888 36.93568 49.7152 49.7152 0 0 0 38.68672 13.1072h43.58144v16.91648l-38.22592 11.776c-25.35424 11.01824-38.4 38.30784-30.59712 64v2.58048l62.33088-19.8656a29.25568 29.25568 0 0 0 5.23264 24.51456 31.66208 31.66208 0 0 0 22.67136 12.26752l11.85792 55.9104 11.84768 59.96544 2.68288 33.4848C385.2288 710.62528 399.36 725.504 417.81248 727.04h100.93568l-5.7344-29.7984-4.58752-23.54176a44.70784 44.70784 0 0 1-10.32192-8.45824 14.45888 14.45888 0 0 1-3.06176-3.6864l-16.4352 5.5296h-9.18528c-4.79232-0.01024-9.5232-1.14688-13.76256-3.31776a29.21472 29.21472 0 0 1-14.14144-18.0224 68.7104 68.7104 0 0 1 9.17504-53.7088 54.94784 54.94784 0 0 1-15.29856-12.50304 54.09792 54.09792 0 0 1-13.38368-44.88192l14.15168-86.81472 4.1984-22.43584c2.33472-13.9264 15.19616-23.92064 29.82912-23.18336 19.18976-0.17408 35.55328 13.35296 38.23616 31.6416l6.5024 32.36864c0.768 3.072 2.2016 5.95968 4.1984 8.45824a107.95008 107.95008 0 0 1 38.2464-10.30144h109.73184a57.11872 57.11872 0 0 0-10.32192-5.87776l-33.64864-9.19552v-18.0224h45.49632a49.7152 49.7152 0 0 0 38.68672-13.1072 45.74208 45.74208 0 0 0 14.45888-36.92544l-22.1696-123.97568L694.25152 225.28z" fill="#FFAD5A" p-id="22798"></path><path d="M519.99744 663.86944l8.6528 39.4752L535.3472 737.28c15.07328-4.9152 25.47712-17.88928 26.34752-32.82944 0 0 2.7648-22.50752 3.15392-22.50752l14.94016-73.7792 11.008-51.64032a32.75776 32.75776 0 0 0 23.06048-12.43136c5.4272-7.0656 7.34208-15.9744 5.25312-24.46336l59.78112 18.45248v-2.59072c2.7648-9.65632 2.7648-19.84512 0-29.51168a67.072 67.072 0 0 0-10.61888 0H548.31104c-9.728 0.72704-19.21024 3.23584-27.91424 7.3728a37.45792 37.45792 0 0 0-5.12 5.90848c-19.74272-0.80896-36.16768-14.52032-39.3216-32.82944l-7.07584-34.304a11.0592 11.0592 0 0 0-3.4304-8.32512 12.60544 12.60544 0 0 0-8.76544-3.4816l-4.32128 22.87616-16.91648 87.78752c-1.28 10.10688 2.4576 20.20352 10.11712 27.40224 7.68 7.19872 18.432 10.69056 29.21472 9.49248h31.06816v11.80672l-26.34752 8.47872c-17.41824 7.03488-27.01312 24.71936-22.81472 42.05568v1.8432l44.83072-13.64992a19.968 19.968 0 0 0 3.33824 16.50688 22.6304 22.6304 0 0 0 15.1552 8.94976z" fill="#FFFFFF" p-id="22799"></path></svg>