<?xml version="1.0" standalone="no"?><!DOCTYPE svg PUBLIC "-//W3C//DTD SVG 1.1//EN" "http://www.w3.org/Graphics/SVG/1.1/DTD/svg11.dtd"><svg t="1751004887528" class="icon" viewBox="0 0 1024 1024" version="1.1" xmlns="http://www.w3.org/2000/svg" p-id="21761" xmlns:xlink="http://www.w3.org/1999/xlink" width="200" height="200"><path d="M727.04 979.456H336.384V445.952L727.04 445.44z" fill="#CFFFF6" p-id="21762"></path><path d="M439.808 855.552H583.68c9.728 0 17.92-8.192 17.92-17.92S593.92 819.2 583.68 819.2H439.808c-9.728 0-17.92 8.192-17.92 17.92s7.68 18.432 17.92 18.432zM439.808 711.168H583.68c9.728 0 17.92-8.192 17.92-17.92s-8.192-17.92-17.92-17.92H439.808c-9.728 0-17.92 8.192-17.92 17.92s7.68 17.92 17.92 17.92zM439.808 567.296H583.68c9.728 0 17.92-8.192 17.92-17.92s-8.192-17.92-17.92-17.92H439.808c-9.728 0-17.92 8.192-17.92 17.92s7.68 17.92 17.92 17.92z" fill="#00AA99" p-id="21763"></path><path d="M809.984 387.072h-64c-4.608-77.312-66.56-139.264-143.872-143.872V116.224c0-49.664-40.448-89.6-89.6-89.6h-0.512c-49.664 0-89.6 40.448-89.6 89.6v126.976c-77.312 4.608-139.264 66.56-143.872 143.872H214.016c-84.48 0-153.088 68.608-153.088 153.088v17.92c0 84.48 68.608 153.088 153.088 153.088h62.976v223.232c0 34.816 28.16 62.976 62.976 62.976h342.528c34.816 0 62.976-28.16 62.976-62.976v-223.232h64c84.48 0 153.088-68.608 153.088-153.088v-17.92c0.512-84.48-68.096-153.088-152.576-153.088zM457.728 116.224c0-29.696 24.064-53.76 53.76-53.76h0.512c29.696 0 53.76 24.064 53.76 53.76v126.464H457.728V116.224z m-27.136 162.304H592.896c61.44 0 112.128 47.616 116.736 108.032H313.856c4.608-59.904 55.296-108.032 116.736-108.032z m-153.6 396.8H214.016c-64.512 0-117.248-52.736-117.248-117.248v-17.92c0-64.512 52.736-117.248 117.248-117.248h62.976v252.416z m433.152 259.072c0 14.848-12.288 27.136-27.136 27.136H340.48c-14.848 0-27.136-12.288-27.136-27.136V422.912h396.288v511.488z m217.088-376.32c0 64.512-52.736 117.248-117.248 117.248h-62.976V422.912h62.976c64.512 0 117.248 52.736 117.248 117.248v17.92z" fill="#00AA99" p-id="21764"></path></svg>