<?xml version="1.0" standalone="no"?><!DOCTYPE svg PUBLIC "-//W3C//DTD SVG 1.1//EN" "http://www.w3.org/Graphics/SVG/1.1/DTD/svg11.dtd"><svg t="1751004454356" class="icon" viewBox="0 0 1024 1024" version="1.1" xmlns="http://www.w3.org/2000/svg" p-id="10996" xmlns:xlink="http://www.w3.org/1999/xlink" width="200" height="200"><path d="M421.44 274.133333l-79.274667-20.544-39.637333-10.261333-19.818667-5.141333-12.181333-3.114667a87.765333 87.765333 0 0 1-12.202667-5.162667 100.074667 100.074667 0 0 1-37.546666-32.469333 92.842667 92.842667 0 0 1-15.616-44.437333c-1.557333-15.338667 1.258667-29.397333 2.837333-42.624l2.666667-20.309334 0.170666-1.28 0.042667-0.32 0.021333-0.149333 0.021334-0.085333c2.154667-0.064-4.842667 0 4.842666 0.021333l-0.085333 0.64-0.341333 2.538667-0.661334 5.056L213.333333 106.666667l-1.322666-10.154667-0.682667-5.056-0.32-2.538667-0.085333-0.64c9.664-0.021333 2.688-0.085333 4.842666-0.021333l0.021334 0.085333 0.021333 0.149334 0.042667 0.32 0.170666 1.28 2.666667 20.309333c1.898667 13.738667 2.944 27.008 7.402667 38.250667 8.149333 23.232 26.858667 37.589333 47.466666 41.408 2.474667 0.448 5.12 0.832 7.168 0.832 0.170667 0 0.554667 0.021333 0.469334-0.042667l-0.042667-0.064 0.170667 0.021333c-2.261333-0.362667-0.533333-0.106667-1.002667-0.192h0.618667l2.56-0.021333 5.12-0.042667 20.458666-0.170666 40.96-0.298667 81.877334-0.618667-10.474667 84.672zM592.106667 189.461333l81.877333 0.618667 40.96 0.298667 20.458667 0.170666 5.12 0.042667 2.56 0.021333h0.618666c-0.448 0.085333 1.28-0.170667-1.002666 0.192l0.170666-0.021333-0.042666 0.042667c-0.085333 0.064 0.32 0.042667 0.469333 0.042666 2.048 0 4.693333-0.384 7.168-0.832 20.608-3.84 39.317333-18.197333 47.466667-41.408 4.458667-11.242667 5.504-24.512 7.402666-38.250666l2.666667-20.309334 0.170667-1.28 0.042666-0.32 0.021334-0.149333 0.021333-0.085333c2.154667-0.064-4.842667 0 4.842667 0.021333l-0.085334 0.64-0.341333 2.538667-0.661333 5.056L810.666667 106.666667l-1.344-10.154667-0.661334-5.056-0.341333-2.538667-0.085333-0.64c9.664-0.021333 2.688-0.085333 4.842666-0.021333l0.021334 0.085333 0.021333 0.149334 0.042667 0.32 0.170666 1.28 2.666667 20.309333c1.578667 13.226667 4.394667 27.285333 2.837333 42.624a92.885333 92.885333 0 0 1-15.594666 44.416 99.904 99.904 0 0 1-37.546667 32.469333 88.874667 88.874667 0 0 1-12.202667 5.162667l-12.181333 3.114667-19.818667 5.141333-39.637333 10.261333-79.274667 20.544-10.474666-84.672z" fill="#FFD54F" p-id="10997"></path><path d="M725.333333 384s-1.792-39.125333 17.792-39.125333c19.541333 0 19.541333 39.125333 78.208 39.125333s117.333333-78.272 117.333334-97.792c0-19.541333-78.208-39.146667-117.333334-39.146667s-78.208 39.146667-97.792 39.146667C704 286.208 618.666667 213.333333 618.666667 213.333333H405.333333s-85.333333 72.874667-104.874666 72.874667c-19.584 0-58.666667-39.146667-97.792-39.146667S85.333333 266.666667 85.333333 286.208C85.333333 305.728 144 384 202.666667 384s58.666667-39.125333 78.208-39.125333C300.458667 344.874667 298.666667 384 298.666667 384h426.666666z" fill="#5D4037" p-id="10998"></path><path d="M682.666667 277.333333H341.333333s-42.666667 42.666667-42.666666 85.333334c0 106.666667 85.333333 426.666667 106.666666 448 7.552 7.552 42.666667 10.666667 85.333334 8 42.666667 2.666667 120.448-0.448 128-8 21.333333-21.333333 106.666667-362.666667 106.666666-448 0-42.666667-42.666667-85.333333-42.666666-85.333334z" fill="#795548" p-id="10999"></path><path d="M576 149.333333h-128c-47.125333 0-64 42.666667-85.333333 85.333334l-21.333334 42.666666s106.666667 85.333333 106.666667 298.666667c0 64-39.253333 194.282667-42.666667 213.333333h213.333334c-3.413333-19.050667-48.384-149.333333-48.384-213.333333C570.282667 362.666667 682.666667 277.333333 682.666667 277.333333l-21.333334-42.666666c-21.333333-42.666667-38.208-85.333333-85.333333-85.333334z" fill="#CFD8DC" p-id="11000"></path><path d="M618.666667 906.666667a32 32 0 0 1-31.936 32h-149.461334a32 32 0 1 1 0-64h149.461334A32 32 0 0 1 618.666667 906.666667z" fill="#78909C" p-id="11001"></path><path d="M640 874.666667a21.333333 21.333333 0 0 1-21.333333 21.333333H405.333333a21.333333 21.333333 0 0 1-21.333333-21.333333l21.333333-85.333334c3.008-13.333333 12.672-42.666667 42.666667-42.666666h128c28.992 0 38.677333 28.672 42.666667 42.666666l21.333333 85.333334z" fill="#B0BEC5" p-id="11002"></path><path d="M554.666667 832c0-11.797333 42.666667-42.666667 42.666666-42.666667v42.666667a21.333333 21.333333 0 1 1-42.666666 0zM469.333333 832c0-11.797333-42.666667-42.666667-42.666666-42.666667v42.666667a21.333333 21.333333 0 1 0 42.666666 0z" fill="#455A64" p-id="11003"></path><path d="M682.453333 432.533333a61.162667 61.162667 0 0 1-3.456-20.394666c0-18.602667 8.170667-34.837333 20.373334-44.138667C681.642667 374.848 661.333333 390.613333 661.333333 426.666667c0 0 9.898667 2.133333 21.461334 5.994666l-0.341334-0.128zM340.544 432.533333c2.218667-6.272 3.456-13.162667 3.456-20.394666 0-18.602667-8.170667-34.837333-20.373333-44.138667 17.728 6.848 38.037333 22.613333 38.037333 58.666667 0 0-9.898667 2.133333-21.461333 5.994666l0.341333-0.128z" fill="#FFFFFF" p-id="11004"></path><path d="M725.333333 362.666667s-12.202667 0-25.962666 5.333333c-12.202667 9.322667-20.373333 25.536-20.373334 44.138667 0 7.232 1.237333 14.122667 3.456 20.394666 11.029333 3.648 23.658667 8.896 30.869334 15.466667 7.573333-6.208 42.688-46.677333 12.010666-85.333333zM297.664 362.666667s12.202667 0 25.962667 5.333333c12.202667 9.322667 20.373333 25.536 20.373333 44.138667 0 7.232-1.237333 14.122667-3.456 20.394666-11.029333 3.648-23.658667 8.896-30.869333 15.466667-7.573333-6.208-42.666667-46.677333-12.010667-85.333333z" fill="#263238" p-id="11005"></path></svg>