<?xml version="1.0" standalone="no"?><!DOCTYPE svg PUBLIC "-//W3C//DTD SVG 1.1//EN" "http://www.w3.org/Graphics/SVG/1.1/DTD/svg11.dtd"><svg t="1750992071115" class="icon" viewBox="0 0 1024 1024" version="1.1" xmlns="http://www.w3.org/2000/svg" p-id="6206" xmlns:xlink="http://www.w3.org/1999/xlink" width="200" height="200"><path d="M676.384 482h225.616V512c0 82.712-67.288 150-150 150-10.12 0-20.168-1.032-30-3.032V754h-0.104c36.464 27.384 60.104 70.984 60.104 120C782 956.712 714.712 1024 632 1024H272c-82.712 0-150-67.288-150-150 0-49.016 23.632-92.616 60.104-120h-0.104V658.736c-10.48 2.136-21.24 3.264-32 3.264C67.288 662 0 594.712 0 512v-30h227.616a271.52 271.52 0 0 1 21.808-28.288c-4.88-19.16-7.424-40.16-7.424-61.712 0-36.616 7.36-71.52 20.736-98.272 16.688-33.36 41.28-51.728 69.264-51.728 27.984 0 52.576 18.376 69.264 51.728 9.888 19.784 16.48 44.024 19.248 70.12 10.336-1.208 20.832-1.848 31.488-1.848 10.656 0 21.152 0.64 31.488 1.84 2.768-26.088 9.36-50.328 19.248-70.112 16.688-33.36 41.28-51.728 69.264-51.728 27.984 0 52.576 18.376 69.264 51.728C654.632 320.48 662 355.384 662 392c0 21.56-2.552 42.552-7.424 61.712a271.728 271.728 0 0 1 21.808 28.288zM556.408 320.56c-7.52 15.04-12.4 35.296-13.904 57.064 20.96 7.48 40.72 17.472 58.944 29.624 0.36-5 0.552-10.088 0.552-15.248 0-27.088-5.256-53.12-14.4-71.44-7.68-15.336-14.56-18.56-15.6-18.56-1.04 0-7.92 3.224-15.6 18.56zM482 424.16v143.624c0 30.16 14.984 58.16 40.08 74.888l0.264 0.184 119.44 81.504c6.872 0.448 13.624 1.32 20.216 2.664V632c0-105.608-78.368-193.248-180-207.848z m-165.6-103.584c-9.144 18.304-14.4 44.344-14.4 71.432 0 5.16 0.192 10.24 0.56 15.248a269.304 269.304 0 0 1 58.936-29.624C360 355.856 355.12 335.6 347.6 320.56c-7.664-15.344-14.552-18.568-15.592-18.568-1.04 0-7.92 3.224-15.6 18.56zM242 632v95.016A150.104 150.104 0 0 1 272 724h262.824l-46.176-31.52a149.712 149.712 0 0 1-66.648-124.704V424.16C320.368 438.752 242 526.392 242 632z m-92-30c11.768 0 23.736-2.232 34.44-6.224a269.648 269.648 0 0 1 13-53.976H65.136C77.52 576.72 110.888 602 150 602z m152 242h60v60h-60v-60z m240 0h60v60h-60v-60z m180 30C722 824.376 681.624 784 632 784H272c-49.624 0-90 40.376-90 90S222.376 964 272 964h360c49.624 0 90-40.376 90-90z m30-272c39.12 0 72.48-25.08 84.856-60H706.56a267.744 267.744 0 0 1 13.032 53.928c10.28 3.968 21.264 6.072 32.416 6.072z m-210-60h60v60h-60v-60z m-240 0h60v60h-60v-60z m439.184-259.184c51.064 51.064 118.832 79.184 190.816 79.184v60c-88.008 0-170.848-34.36-233.24-96.76C637.272 263.76 602 178.008 602 90h60c0 72.216 28.864 142.496 79.184 192.816z m84.808-86.808c29.656 29.656 67.304 45.992 106.008 45.992v60c-54.728 0-107.44-22.576-148.432-63.568-39.704-39.696-61.568-92.408-61.568-148.432h60c0 39.992 15.624 77.64 43.992 106.008z m170.16-170.12C1014.112 43.048 1024 65.824 1024 90c0 24.176-9.888 46.952-27.84 64.112a92.52 92.52 0 0 1-64.16 25.888c-49.624 0-90-40.376-90-90S882.376 0 932 0c23.912 0 46.696 9.2 64.16 25.888zM932 120c17.04 0 32-14.016 32-30s-14.96-30-32-30a30.032 30.032 0 0 0-30 30A30.032 30.032 0 0 0 932 120z" fill="#40BEFE" p-id="6207"></path></svg>