<?xml version="1.0" standalone="no"?><!DOCTYPE svg PUBLIC "-//W3C//DTD SVG 1.1//EN" "http://www.w3.org/Graphics/SVG/1.1/DTD/svg11.dtd"><svg t="1750925827647" class="icon" viewBox="0 0 1024 1024" version="1.1" xmlns="http://www.w3.org/2000/svg" p-id="5764" xmlns:xlink="http://www.w3.org/1999/xlink" width="200" height="200"><path d="M428.740923 428.658215c-28.156062 47.612062-82.652554 68.891569-121.714215 47.517539-39.061662-21.377969-47.899569-77.296246-19.73957-124.912246 28.156062-47.619938 82.656492-68.891569 121.718154-47.5136 39.061662 21.370092 47.899569 77.296246 19.735631 124.908307zM558.804677 428.658215c28.156062 47.612062 82.660431 68.891569 121.714215 47.517539 39.061662-21.377969 47.895631-77.296246 19.747446-124.912246-28.156062-47.612062-82.656492-68.891569-121.718153-47.5136-39.061662 21.370092-47.903508 77.296246-19.743508 124.908307z" p-id="5765"></path><path d="M775.353108 123.191138c-104.172308-107.535754-241.5616-110.639262-256.886154-110.639261l-43.815385 0.003938-0.645907-0.003938c-15.324554 0-152.709908 3.107446-256.882216 110.6432-80.5888 83.196062-118.941538 204.224985-113.990892 359.739077l0.122092 3.820308 0.704985 3.745476c8.822154 46.808615 18.349292 125.7472 11.905969 154.6752-12.181662 54.650092 5.167262 101.1712 25.462154 126.487631 15.986215 19.940431 36.682831 30.9248 58.285292 30.9248 8.534646 0 16.474585-1.555692 24.150646-3.056246 6.486646-1.272123 13.197785-2.583631 18.463508-2.583631 1.815631 0 2.847508 0.161477 3.312246 0.263877 0.760123 0.831015 3.501292 4.308677 6.234585 13.631016 2.902646 9.893415 4.032985 22.417723 5.234215 35.682461 3.048369 33.725046 7.223138 79.915323 47.249723 115.310277 38.805662 34.311877 100.288985 49.616738 199.360985 49.616739 97.047631 0 156.530215-14.903138 192.866461-48.328862 38.561477-35.469785 39.727262-81.140185 40.581908-114.4832 0.366277-14.276923 0.708923-27.762215 3.654892-37.805292 2.729354-9.306585 5.466585-12.788185 6.226708-13.623139 0.464738-0.1024 1.496615-0.263877 3.316185-0.263877 5.265723 0 11.976862 1.311508 18.463507 2.583631 7.676062 1.504492 15.616 3.056246 24.150647 3.056246 21.590646 0 42.287262-10.976492 58.269538-30.912984 20.298831-25.316431 37.655631-71.837538 25.481846-126.503385-6.455138-28.939815 3.075938-107.866585 11.898092-154.655508l0.712862-3.76123 0.122092-3.824247c4.942769-155.510154-33.417846-276.546954-114.010584-359.739077z m15.710523 352.917662c-5.356308 29.203692-23.024246 134.470892-10.535385 190.475815 3.1744 14.245415 1.071262 26.612185-1.732923 34.646647-8.164431-1.4336-17.888492-2.749046-28.526277-2.749047-29.585723 0-82.439877 10.996185-104.022646 84.641477-6.565415 22.3744-7.1168 43.953231-7.605169 62.999631-0.661662 25.934769-1.697477 37.9904-8.802462 44.528246-2.394585 2.205538-6.923815 5.360246-15.143384 8.617354v-77.359261c0-27.1872-22.043569-49.230769-49.23077-49.23077s-49.230769 22.043569-49.230769 49.23077v90.962707a720.722708 720.722708 0 0 1-43.323077-0.531692v-90.431015c0-27.1872-22.039631-49.230769-49.230769-49.23077s-49.230769 22.043569-49.230769 49.23077v69.876184c-2.024369-1.307569-3.654892-2.56-4.962462-3.713969-9.739815-8.613415-11.779938-21.318892-14.410831-50.412308-1.496615-16.584862-3.198031-35.383138-8.810338-54.524061-21.594585-73.657108-74.4448-84.653292-104.030523-84.653293-10.641723 0-20.369723 1.315446-28.534154 2.749047-2.800246-8.030523-4.899446-20.397292-1.725046-34.646647 12.473108-56.000985-5.183015-161.268185-10.539323-190.475815-3.398892-126.026831 25.666954-221.703877 86.405908-284.408123 77.272615-79.7696 181.748185-80.687262 185.985969-80.6912l43.988677 0.007877-0.015754 0.011815 0.661661-0.015754c4.407138 0 108.886646 0.917662 186.167139 80.687262 60.750769 62.708185 89.824492 158.381292 86.433477 284.408123z" p-id="5766"></path><path d="M496.246154 686.032738c-27.1872 0-49.230769-22.043569-49.230769-49.230769v-70.892307c0-27.1872 22.043569-49.230769 49.230769-49.23077s49.230769 22.043569 49.230769 49.23077v70.892307c0 27.1872-22.043569 49.230769-49.230769 49.230769z" p-id="5767"></path></svg>