<?xml version="1.0" standalone="no"?><!DOCTYPE svg PUBLIC "-//W3C//DTD SVG 1.1//EN" "http://www.w3.org/Graphics/SVG/1.1/DTD/svg11.dtd"><svg t="1750925809561" class="icon" viewBox="0 0 1024 1024" version="1.1" xmlns="http://www.w3.org/2000/svg" p-id="5609" xmlns:xlink="http://www.w3.org/1999/xlink" width="200" height="200"><path d="M512 955.733333c-121.890133 0-227.584-43.8784-314.146133-130.440533C111.872 739.2768 68.266667 633.890133 68.266667 512c0-121.856 43.588267-227.549867 129.536-314.112C284.450133 111.854933 390.126933 68.266667 512 68.266667c121.9072 0 227.293867 43.605333 313.2928 129.5872C911.854933 284.416 955.733333 390.109867 955.733333 512c0 121.924267-43.895467 227.328-130.474666 313.326933C739.328 911.837867 633.924267 955.733333 512 955.733333z m0-853.333333c-112.5376 0-210.1248 40.2432-290.065067 119.620267C142.6432 301.8752 102.4 399.479467 102.4 512c0 112.503467 40.226133 209.783467 119.586133 289.160533C301.909333 881.083733 399.496533 921.6 512 921.6c112.4864 0 209.7664-40.4992 289.1264-120.405333C881.1008 721.7664 921.6 624.4864 921.6 512c0-112.503467-40.516267-210.090667-120.439467-290.013867C721.800533 142.626133 624.520533 102.4 512 102.4z" p-id="5610"></path><path d="M597.333333 870.4c-27.904 0-52.343467-10.308267-72.6528-30.600533C504.9344 820.0704 494.933333 795.921067 494.933333 768v-68.266667h-153.6a17.066667 17.066667 0 1 1 0-34.133333h341.333334a17.066667 17.066667 0 0 1 17.066666 17.066667v85.333333c-0.682667 28.8256-11.042133 52.923733-30.8224 72.021333C649.591467 860.040533 625.3568 870.4 597.333333 870.4z m-68.266666-170.666667v68.266667c0 18.7904 6.468267 34.389333 19.746133 47.6672C562.688 829.525333 578.542933 836.266667 597.333333 836.266667c18.670933 0 34.2016-6.673067 47.4624-20.394667 13.6704-13.2096 20.343467-28.859733 20.804267-48.264533V699.733333h-51.2v31.573334a17.066667 17.066667 0 1 1-34.133333 0V699.733333h-51.2z m238.08-170.666666a17.015467 17.015467 0 0 1-12.066134-5.000534l-73.2672-73.2672-73.2672 73.2672a17.0496 17.0496 0 1 1-24.132266-24.132266L657.681067 426.666667l-73.2672-73.2672a17.0496 17.0496 0 1 1 24.132266-24.132267l73.2672 73.2672 73.2672-73.2672a17.0496 17.0496 0 1 1 24.132267 24.132267L705.9456 426.666667l73.2672 73.2672A17.0496 17.0496 0 0 1 767.146667 529.066667z m-341.333334 0a17.015467 17.015467 0 0 1-12.066133-5.000534l-73.2672-73.2672-73.2672 73.2672a17.0496 17.0496 0 1 1-24.132267-24.132266L316.347733 426.666667l-73.2672-73.2672a17.0496 17.0496 0 1 1 24.132267-24.132267l73.2672 73.2672 73.2672-73.2672a17.0496 17.0496 0 1 1 24.132267 24.132267L364.612267 426.666667l73.2672 73.2672A17.0496 17.0496 0 0 1 425.813333 529.066667z" p-id="5611"></path></svg>