<?xml version="1.0" standalone="no"?><!DOCTYPE svg PUBLIC "-//W3C//DTD SVG 1.1//EN" "http://www.w3.org/Graphics/SVG/1.1/DTD/svg11.dtd"><svg t="1750925712046" class="icon" viewBox="0 0 1024 1024" version="1.1" xmlns="http://www.w3.org/2000/svg" p-id="4481" xmlns:xlink="http://www.w3.org/1999/xlink" width="200" height="200"><path d="M782.491472 119.163767l-94.247816-40.373921-119.715766-42.653917-72.01386-17.687965-112.40378 17.687965-139.121728 147.151713s-36.405929 112.52778-36.405929 118.839768v109.497786l-25.65595 27.591946s35.249931 259.495493 34.435932 364.053289l27.623947 38.811924 25.59395 80.213844 94.465815 69.999863h85.497833l96.295812-51.999899 61.685879-76.871849 47.999907-116.091774 53.059896-91.559821 30.90394-42.687916 45.99991-142.463722 33.999933-132.213742v-134.059738l-37.997925-85.183834z" fill="#EAC6BB" p-id="4482"></path><path d="M420.766178 1023.986c-14.249972 0-28.591944-1.717997-42.935916-5.15599-97.37381-23.531954-172.371663-124.247757-160.463687-215.557579 1.531997-11.687977 12.249976-19.905961 23.905954-18.405964 11.687977 1.531997 19.937961 12.217976 18.405964 23.905953-4.249992 32.531936 7.187986 69.809864 31.311939 102.277801 24.749952 33.249935 60.029883 57.405888 96.87381 66.31187 42.279917 10.18798 85.059834 0.311999 123.715759-28.531944 49.043904-36.623928 90.543823-101.589802 123.325759-193.027623l0.967998-2.687995 1.623997-2.341995c0.531999-0.749999 54.653893-78.715846 100.745803-182.121645 75.687852-169.683669 72.437859-276.46146 56.37589-336.177343-8.593983-31.969938-23.281955-60.405882-43.623915-84.499835-22.437956-26.531948-52.497897-48.685905-89.371825-65.873871-65.343872-30.46794-126.575753-43.341915-181.951645-38.281926-47.935906 4.375991-91.621821 22.187957-129.839746 52.937897-47.591907 38.279925-86.373831 97.18581-109.215787 165.839676-20.029961 60.185882-26.061949 122.74776-16.061969 167.307673 2.561995 11.497978-4.655991 22.903955-16.155968 25.465951-11.499978 2.593995-22.905955-4.655991-25.46795-16.155969-11.623977-51.777899-5.18799-122.83976 17.185966-190.087629 25.40595-76.341851 69.091865-142.277722 122.99776-185.621637 66.873869-53.809895 183.027643-100.965803 356.539304-20.093961 82.185839 38.311925 134.747737 98.215808 156.183695 178.059652 14.437972 53.715895 14.561972 116.621772 0.375999 186.931635-11.153978 55.185892-31.091939 115.185775-59.309884 178.339652-43.749915 97.965809-93.059818 171.837664-102.7798 186.087637-35.529931 98.091808-81.623841 168.80767-137.041732 210.183589-36.349929 27.129947-75.911852 40.97392-116.315773 40.97392z" fill="#DBADA2" p-id="4483"></path><path d="M728.709577 256.599499c-33.153935-67.029869-79.995844-109.747786-139.245728-126.935752-106.107793-30.74794-211.979586 32.687936-216.447578 35.405931-10.06198 6.123988-13.249974 19.249962-7.123986 29.311942 6.123988 10.05998 19.249962 13.247974 29.311943 7.123986 0.935998-0.561999 94.121816-56.43589 182.385644-30.841939 47.281908 13.687973 85.249833 48.967904 112.873779 104.841795a21.335958 21.335958 0 0 0 19.123963 11.903977 21.219959 21.219959 0 0 0 9.435982-2.217996c10.561979-5.21999 14.905971-18.029965 9.685981-28.591944zM514.233996 339.035338c-62.625878-12.593975-123.873758 32.187937-126.435753 34.093933-9.467982 7.031986-11.437978 20.40596-4.405992 29.841942 6.999986 9.467982 20.37396 11.437978 29.841942 4.437991 0.467999-0.375999 49.061904-35.279931 92.591819-26.529948 20.123961 4.031992 36.311929 16.809967 49.513903 38.997924 28.093945 47.403907 7.093986 78.091847-39.263923 137.557731-15.905969 20.40596-33.937934 43.559915-50.561901 70.153863-31.591938 50.499901-37.123927 95.091814-40.779921 124.589757-1.311997 10.593979-3.093994 24.999951-5.623989 28.467944-0.499999 0.156-1.905996 0.531999-4.87599 0.499999-7.655985-0.094-13.937973-3.061994-19.749961-9.375981-14.717971-15.875969-24.905951-50.935901-28.687944-98.713808-3.061994-38.967924-0.843998-72.905858-0.811999-73.217857 0.811998-11.747977-8.061984-21.935957-19.811961-22.747955a21.315958 21.315958 0 0 0-22.749956 19.809961c-0.094 1.499997-2.467995 36.937928 0.811999 78.937846 4.623991 59.215884 18.031965 101.245802 39.905922 124.901756 13.749973 14.875971 31.281939 22.875955 50.623901 23.061955h0.781998c24.935951 0 36.967928-12.967975 42.655917-23.937953 6.061988-11.593977 7.811985-25.875949 9.875981-42.437917 3.375993-27.309947 8.029984-64.713874 34.591932-107.213791 15.46797-24.749952 32.031937-45.99991 48.077906-66.59187 23.403954-30.029941 43.623915-55.965891 54.029895-84.653835 12.249976-33.875934 8.405984-66.873869-11.749977-100.873803-19.405962-32.715936-45.561911-52.557897-77.793848-59.057884z" fill="#DBADA2" p-id="4484"></path></svg>