<?xml version="1.0" standalone="no"?><!DOCTYPE svg PUBLIC "-//W3C//DTD SVG 1.1//EN" "http://www.w3.org/Graphics/SVG/1.1/DTD/svg11.dtd"><svg t="1750991973274" class="icon" viewBox="0 0 1024 1024" version="1.1" xmlns="http://www.w3.org/2000/svg" p-id="3946" xmlns:xlink="http://www.w3.org/1999/xlink" width="200" height="200"><path d="M969.273734 357.613503l-83.3874-43.827025-76.936226-40.516104 104.993714-219.476456C920.97526 39.048377 909.369973 18.022328 888.070859 6.826639c-21.367381-11.195689-44.373156-8.3285-51.438728 6.485308l-104.95958 219.339922-69.529322-36.590787-108.133967-56.900039-3.208521-1.467727L547.455688 136.532787c-2.252791-0.477865-2.833055-0.682664-3.41332-0.75093a64.580008 64.580008 0 0 0-3.447453-0.477865c-2.252791 0-2.833055-0.068266-3.413319 0l-3.41332 0.204799-3.31092 0.614398c-2.184525 0.614398-2.730656 0.75093-3.31092 0.955729l-3.174388 1.228795-3.003721 1.570127c-1.911459 1.228795-2.423457 1.535994-2.935455 1.91146-1.774926 1.399461-2.286924 1.774926-2.730656 2.184524-1.70666 1.60426-2.116258 2.013859-2.491723 2.45759-1.570127 1.843193-1.979725 2.252791-2.321057 2.730656-1.433594 2.047992-1.774926 2.525857-2.047992 3.037855-1.228795 2.184525-1.501861 2.628256-1.70666 3.10612a724.852567 724.852567 0 0 1-96.904146 147.694343 820.527918 820.527918 0 0 1-83.3874 85.196459c-77.482357 68.471193-168.140127 123.562172-269.447455 163.668679a37.102785 37.102785 0 0 0-22.698576 37.239318c-0.921596 13.755678 5.563711 26.896959 16.827666 34.099063l608.117034 388.981911c4.26665 2.730656 9.011164 4.437316 13.960478 5.119979a34.235596 34.235596 0 0 0 45.05582-3.857051c85.503658-87.824715 152.643656-186.401388 199.576801-293.033494 47.445144-107.758502 71.713846-218.042861 72.089312-327.610423a38.024381 38.024381 0 0 0-6.280508-21.162582 36.215322 36.215322 0 0 0-14.370076-13.994611z m-115.643271 331.808806c-40.140639 91.203902-96.528681 176.195562-167.696396 253.029388l-134.348262-85.913256 84.377262-86.356988c13.960477-14.301809 14.19941-37.717182 0.546131-52.326191a34.201463 34.201463 0 0 0-49.971-0.580264l-97.177211 99.464135-158.036701-101.068396 95.436418-70.007186c16.008469-11.707687 19.865521-34.781728 8.669832-51.541127a34.372129 34.372129 0 0 0-49.254203-9.045298l-120.626718 88.50738-123.084307-78.677019a971.260115 971.260115 0 0 0 229.614015-150.186066 897.156945 897.156945 0 0 0 70.416785-69.495189l433.1844 258.934431a838.550246 838.550246 0 0 1-22.050045 55.295779z m43.997691-127.38509L489.804718 318.29206a806.191975 806.191975 0 0 0 62.975748-96.938279l366.01027 192.51123a710.175293 710.175293 0 0 1-21.162582 148.172208z" fill="#46BE34" p-id="3947"></path></svg>