<?xml version="1.0" standalone="no"?><!DOCTYPE svg PUBLIC "-//W3C//DTD SVG 1.1//EN" "http://www.w3.org/Graphics/SVG/1.1/DTD/svg11.dtd"><svg t="1751004499757" class="icon" viewBox="0 0 1024 1024" version="1.1" xmlns="http://www.w3.org/2000/svg" p-id="13870" xmlns:xlink="http://www.w3.org/1999/xlink" width="200" height="200"><path d="M781.9 804.1c-180.6 19.6-361.2 19.6-541.8 0-6.6-0.7-12.6-6.7-13.3-13.3-19.1-185.8-19.1-371.7 0-557.5 0.7-6.6 6.7-12.6 13.3-13.3 180.6-19.6 361.2-19.6 541.8 0 6.6 0.7 12.6 6.7 13.3 13.3 19.1 185.8 19.1 371.7 0 557.5-0.7 6.6-6.7 12.6-13.3 13.3z" fill="#ED626A" p-id="13871"></path><path d="M228.1 205.2c28.5-4.6 205.8-18.6 279.9-18.6s252.6 14.2 276.6 18.6c21.9-13.2 13.4-38.6 2.1-51.9-18.6-13.5-31.8-9.2-54.8-13-24-4-24.8-22.4-45.8-26.9-21-4.5-36.5 7.6-60.5 7.6s-35.9-26.9-67.4-26.9-33.4 15.2-71.4 15.9c-30.6 0.5-46.9-8.9-73.3-8-22.3 0.8-24 22-51.3 24-28.1 2.1-37.9-13.9-61.9-10.9s-20.6 18.9-35.6 26.4c-12.7 6.4-26.3 2.2-38.4 11.9-24.8 19.6 1.8 51.8 1.8 51.8zM228.1 818.8c28.5 4.6 205.8 18.6 279.9 18.6s252.6-14.2 276.6-18.6c21.9 13.2 18.6 41 7.2 54.3-18.6 13.5-18.2 11.8-41.2 15.6-24 4-31.6 16.3-52.6 20.8s-48.5-6.5-72.5-6.5-35.9 26.9-67.4 26.9-33.4-15.2-71.4-15.9c-30.6-0.5-30.3 16.8-56.7 15.9-22.3-0.8-38.7-24.6-66-26.6-28.1-2.1-31.5 8.9-55.5 5.9s-33-16-46.5-20.5-29.9 0.5-41.3-10c-11.5-10.5 7.4-59.9 7.4-59.9z" fill="#ED626A" p-id="13872"></path><path d="M379.9 491.2c-3.3 9-7.2 14.5-11.7 16.7-4.5 2.1-10.5 1.9-18.1-0.7-5.2-2.6-8.9-6.3-11-11.2-2.1-4.8-1.1-12.5 3.2-22.9 7.3-17.7 13.9-36 19.9-54.8 5.9-18.8 10.5-37.1 13.8-54.8 1.9-9.2 5-15.1 9.2-17.6 4.3-2.5 9.7-3.4 16.3-2.7 6.6 0.5 11.3 3.3 14 8.3 2.7 5.1 3 11.9 0.9 20.4-0.7 2.6-1.4 5.3-2 8.2-0.6 2.8-1.2 5.6-2 8.2h32.3c12.8 0 21.7 2.5 26.9 7.6 5.2 5.1 7 14 5.3 26.8-1.2 8.7-3 17.1-5.5 25-2.5 7.9-5.7 15.8-9.8 23.6-5.2 9.5-10.2 15.1-14.9 16.8-4.7 1.8-10.3 1.1-16.7-2-6.4-3.3-9.9-7-10.6-11.2-0.7-4.1 1.1-10.3 5.3-18.6 2.6-4.7 4.7-9.1 6.2-13.1s2.8-7.6 3.7-10.6c0.7-2.4 0.6-3.8-0.4-4.4-0.9-0.6-3.1-0.9-6.4-0.9h-26.2c-3.3 10.6-6.7 21.2-10.3 31.6-3.5 10.4-7.4 21.3-11.7 32.6v-0.3zM470.4 594c11.6 8.7 12.3 19.3 2.1 31.6-4.3 5.4-8.2 10.3-11.9 14.5-3.7 4.3-7.3 8.2-10.8 11.7-3.5 3.5-7.2 7-11 10.5-3.8 3.4-8 7-12.8 10.8-6.6 5.2-13 7.8-19.1 7.8-7.6 0-13-2.4-16.3-7.3-3.3-4.8-5-11.8-5-20.7V499.7c0-6.1 1.3-11.1 3.9-14.9 2.6-3.8 8.2-5.7 16.7-5.7 6.6 0 11.6 2.1 15.1 6.2 3.4 4.1 5.1 8.9 5.1 14.4v108.9c0 3.8 0.2 6 0.7 6.6 0.5 0.6 1.4-0.1 2.8-2s3.1-3.9 5-6 3.8-4.4 5.7-6.7c5.4-6.1 10.3-9.9 14.7-11.2 4.4-1.4 9.4 0.2 15.1 4.7z m146.8-151.7c0 6.9-1.8 11.5-5.3 14s-8.4 3.7-14.5 3.7h-96.1c-6.2 0-11-1.2-14.5-3.7s-5.3-7.1-5.3-14c0-7.1 1.8-11.9 5.3-14.5 3.5-2.6 8.4-3.9 14.5-3.9h96.1c6.1 0 11 1.3 14.5 3.9 3.5 2.5 5.3 7.4 5.3 14.5z m-9.6 133.3c0 13.5-2.2 23-6.7 28.7-4.5 5.7-12.4 8.5-23.8 8.5H525c-11.3 0-20.2-3-26.6-8.9-6.4-5.9-9.6-15.4-9.6-28.4v-59.9c0-13.5 3.2-23 9.6-28.5 6.4-5.6 15.2-8.3 26.6-8.3h52.1c11.3 0 19.3 2.8 23.8 8.3 4.5 5.6 6.7 15.1 6.7 28.5v60z m57.1 56.7c0 13.2-3.6 24.2-10.8 33-7.2 8.7-19.2 13.6-36 14.5-8.7 0.5-17.7 0.3-26.8-0.5-9.1-0.8-19.3-3.4-30.7-7.6-7.8-3.1-12.9-6.8-15.4-11.2-2.5-4.4-2.1-10.2 1.2-17.6 2.6-5.9 6-9.5 10.1-10.8 4.1-1.3 10.3-0.7 18.6 1.9 10.2 3.3 18.4 5.6 24.6 6.7 6.3 1.2 11.1 1.3 14.5 0.4 3.4-0.9 5.7-3 6.9-6 1.2-3.1 1.8-7.2 1.8-12.4v-211c0-3.3-0.5-5.6-1.6-6.9-1.1-1.3-3-2-5.9-2H511.5c-6.4 0-11.3-1.2-14.9-3.7-3.5-2.5-5.3-7.5-5.3-15.1 0-7.1 1.8-12.2 5.3-15.2 3.5-3.1 8.5-4.6 14.9-4.6h117c7.8 0 14.1 0.5 18.8 1.6 4.7 1.1 8.4 3.1 11 6.2 2.6 3.1 4.3 7.3 5.1 12.6 0.8 5.3 1.2 12.2 1.2 20.7v227z m-98.6-105.6c0-4.3-0.9-7.1-2.7-8.7-1.8-1.5-4.4-2.3-8-2.3h-14.9c-4.3 0-7.1 1-8.5 3-1.4 2-2.1 5.3-2.1 9.8v34c0 4.7 0.6 8.2 1.9 10.3 1.3 2.1 4 3.2 8 3.2h14.9c4.7 0 7.8-0.9 9.2-2.8 1.4-1.9 2.1-6.3 2.1-13.1v-33.4z" fill="#FFFFFF" p-id="13873"></path></svg>