<?xml version="1.0" standalone="no"?><!DOCTYPE svg PUBLIC "-//W3C//DTD SVG 1.1//EN" "http://www.w3.org/Graphics/SVG/1.1/DTD/svg11.dtd"><svg t="1751004749292" class="icon" viewBox="0 0 1024 1024" version="1.1" xmlns="http://www.w3.org/2000/svg" p-id="18094" xmlns:xlink="http://www.w3.org/1999/xlink" width="200" height="200"><path d="M875.79136 535.2704c-50.176 0-93.51168 30.2592-114.03776 74.47552l-173.34784-62.83776c2.28352-6.97856 2.28352-16.29184 2.28352-23.2704 0-16.29184-2.28352-30.2592-9.12384-46.54592l63.86176-65.16224c18.24768 18.61632 43.33568 27.92448 70.7072 27.92448 57.02144 0 102.63552-46.5408 102.63552-104.72448S773.15584 230.4 716.1344 230.4c-57.02144 0-102.63552 46.5408-102.63552 104.7296 0 13.96224 2.2784 25.6 6.84032 37.23264L556.47744 435.2c-22.8096-25.6-54.74304-41.89184-91.2384-41.89184-4.5568 0-11.40224 0-15.96416 2.3296L412.78464 200.1408C449.27488 183.85408 476.6464 146.61632 476.6464 102.4c0-55.8592-45.6192-102.4-102.63552-102.4-57.02144 0-102.64064 46.5408-102.64064 104.7296 0 55.85408 43.33568 100.0704 95.7952 104.72448l36.49536 202.47552c-29.64992 16.28672-50.176 44.21632-59.29984 76.8H246.28224C234.88 435.2 189.2608 395.63776 134.52288 395.63776 70.656 395.63776 20.48 446.83776 20.48 512s50.176 116.36224 114.04288 116.36224c54.73792 0 100.352-39.56224 111.75936-93.09184h95.7952c2.28352 30.2592 15.96416 58.18368 34.21184 79.1296l-75.264 74.4704c-20.5312-9.30816-41.0624-13.96224-63.86688-13.96224-93.51168 0-171.0592 79.1296-171.0592 174.54592C66.0992 944.8704 143.64672 1024 237.1584 1024c93.5168 0 171.0592-79.1296 171.0592-174.5408 0-53.5296-25.088-102.4-61.57824-132.6592l72.9856-74.4704c13.68576 6.97856 29.64992 9.30816 45.6192 9.30816 45.6192 0 84.38784-25.6 107.19744-60.50816l180.18816 65.16224V665.6c0 69.81632 57.02144 128 125.44 128C946.50368 793.6 1003.52 735.41632 1003.52 665.6c-2.2784-72.1408-59.29984-130.3296-127.72864-130.3296z m-159.65696-256c31.93344 0 57.02144 25.6 57.02144 58.18368 0 32.58368-25.088 58.18368-57.02144 58.18368s-57.02144-25.6-57.02144-58.18368c0-32.58368 25.088-58.18368 57.02144-58.18368zM134.52288 581.81632c-38.77376 0-68.42368-30.25408-68.42368-69.81632 0-39.56224 29.6448-69.81632 68.42368-69.81632 38.77376 0 68.42368 30.25408 68.42368 69.81632 0 39.56224-29.64992 69.81632-68.42368 69.81632zM362.5984 849.4592c0 69.81632-57.02144 128-125.44 128-68.4288 0-125.45024-58.18368-125.45024-128s57.02144-128 125.44512-128 125.44512 58.18368 125.44512 128zM374.016 162.9184c-31.93344 0-57.02144-25.6-57.02144-58.18368 0-32.58368 25.088-58.18368 57.02144-58.18368 31.92832 0 57.02144 25.6 57.02144 58.18368 0 32.57856-25.088 58.17856-57.02144 58.17856z m501.78048 581.81632c-43.33568 0-79.82592-37.23776-79.82592-81.4592 0-44.21632 36.49024-81.45408 79.82592-81.45408 43.33568 0 79.83104 37.23776 79.83104 81.4592 0 44.21632-36.49536 81.45408-79.83104 81.45408z" fill="#3B4552" p-id="18095"></path><path d="M465.24416 605.09184c-43.33568 0-79.83104-37.23776-79.83104-81.4592 0-44.21632 36.49536-81.44896 79.83104-81.44896s79.82592 37.23264 79.82592 81.45408c0 44.21632-36.49024 81.45408-79.82592 81.45408z" fill="#1989FA" p-id="18096"></path></svg>