<?xml version="1.0" standalone="no"?><!DOCTYPE svg PUBLIC "-//W3C//DTD SVG 1.1//EN" "http://www.w3.org/Graphics/SVG/1.1/DTD/svg11.dtd"><svg t="1751004709707" class="icon" viewBox="0 0 1024 1024" version="1.1" xmlns="http://www.w3.org/2000/svg" p-id="17033" xmlns:xlink="http://www.w3.org/1999/xlink" width="200" height="200"><path d="M512 510.206435m-498.663651 0a498.663651 498.663651 0 1 0 997.327302 0 498.663651 498.663651 0 1 0-997.327302 0Z" opacity=".07" p-id="17034"></path><path d="M834.538016 940.783451V590.09497c0-200.733507-138.618673-321.679696-308.035648-321.679696h-12.336325c-169.425072 0-308.02755 120.946189-308.02755 321.679696v350.684432l628.399523 0.004049z" fill="#FF7878" p-id="17035"></path><path d="M858.83009 965.075525l-676.983671-0.004048V590.09497c0-102.43158 33.774081-190.044994 97.674382-253.370383 60.25649-59.718016 143.586402-92.605436 234.649291-92.605436h12.336325c91.054792 0 174.388752 32.88742 234.649291 92.601387 63.900301 63.329438 97.678431 150.942852 97.678431 253.370383v374.984604zM230.430568 916.487328l579.815373 0.004049V590.09497c0-89.180253-28.802303-164.86221-83.293473-218.859443-51.098378-50.640877-122.286302-78.528179-200.4501-78.528178h-12.336325c-78.163798 0-149.351721 27.887301-200.450099 78.528178-54.487123 53.997232-83.285377 129.67919-83.285376 218.863492v326.388309z" fill="#666666" p-id="17036"></path><path d="M292.043365 539.211172h48.584149v113.986509h-48.584149z" fill="#FFFFFF" p-id="17037"></path><path d="M292.043365 697.559058h48.584149v60.159322h-48.584149z" fill="#FFFFFF" opacity=".53" p-id="17038"></path><path d="M395.956761 586.200141h253.309653v48.584148H395.956761z" fill="#666666" p-id="17039"></path><path d="M498.319514 483.829291h48.584148v253.313702h-48.584148zM502.210294 0h48.584149v170.04452h-48.584149zM163.096986 100.221001l120.237671 120.23767-34.353042 34.353042L128.743945 134.578091zM863.599434 100.212904l34.353041 34.35709-120.23767 120.233621-34.353041-34.353041z" fill="#666666" p-id="17040"></path><path d="M808.723638 943.342216h-48.584148v-350.684432c0-89.180253-28.802303-164.86221-83.293474-218.859443-51.098378-50.636829-122.286302-78.528179-200.450099-78.528179h-12.336326v-48.584148h12.336326c91.054792 0 174.388752 32.88742 234.649291 92.601387 63.900301 63.325389 97.678431 150.938803 97.67843 253.370383V943.342216z" fill="#666666" opacity=".15" p-id="17041"></path><path d="M872.919493 949.289726c0-26.118028-21.372977-47.491005-47.495054-47.491005H215.264216c-26.126126 0-47.491005 21.372977-47.491005 47.491005v2.927195c0 26.118028 21.364879 47.491005 47.491005 47.491005h610.152126c26.118028 0 47.491005-21.372977 47.491005-47.491005v-2.927195h0.012146z" fill="#FFFFFF" p-id="17042"></path><path d="M825.416342 1024H215.264216c-39.579886 0-71.783079-32.203193-71.78308-71.783079v-2.927195c0-39.579886 32.203193-71.783079 71.78308-71.78308H825.42039c39.583935 0 71.787128 32.203193 71.787129 71.78308l-0.008098 2.991973c0.004049 39.515107-32.203193 71.718301-71.783079 71.718301zM215.264216 926.086746c-12.793826 0-23.198931 10.405105-23.198931 23.198931v2.927195c0 12.793826 10.405105 23.198931 23.198931 23.198931h610.152126c12.793826 0 23.198931-10.405105 23.198931-23.198931v-2.927195c0-6.149943-2.425159-11.955749-6.834171-16.364761s-10.218866-6.83417-16.36476-6.83417H215.264216z" fill="#666666" p-id="17043"></path></svg>