<?xml version="1.0" standalone="no"?><!DOCTYPE svg PUBLIC "-//W3C//DTD SVG 1.1//EN" "http://www.w3.org/Graphics/SVG/1.1/DTD/svg11.dtd"><svg t="1751005108511" class="icon" viewBox="0 0 1024 1024" version="1.1" xmlns="http://www.w3.org/2000/svg" p-id="32411" xmlns:xlink="http://www.w3.org/1999/xlink" width="200" height="200"><path d="M993.28 962.54976H102.4a40.96 40.96 0 0 1-40.96-40.96v-686.08a30.72 30.72 0 1 0-61.44 0v747.52a40.96 40.96 0 0 0 40.96 40.96h952.32a30.72 30.72 0 1 0 0-61.44z" fill="#2b3bbb" p-id="32412"></path><path d="M321.96608 430.09024h450.56a30.72 30.72 0 1 0 0-61.44h-450.56a30.72 30.72 0 1 0 0 61.44z" fill="#2b3bbb" p-id="32413"></path><path d="M1020.79488 238.15168L931.69664 26.2656A40.94976 40.94976 0 0 0 893.47072 0.01024H232.92928a40.94976 40.94976 0 0 0-38.22592 26.25536l-89.088 211.3024A41.02144 41.02144 0 0 0 102.4 253.48096v626.59584a40.96 40.96 0 0 0 40.96 40.96h839.68a40.96 40.96 0 0 0 40.96-40.96V254.03392a40.8576 40.8576 0 0 0-3.20512-15.88224zM246.53824 61.72672h632.3712l59.58656 143.06304H186.95168l59.58656-143.06304zM962.56 839.1168a20.48 20.48 0 0 1-20.48 20.48H184.32a20.48 20.48 0 0 1-20.48-20.48V266.25024h798.72v572.86656z" fill="#2b3bbb" p-id="32414"></path></svg>