<?xml version="1.0" standalone="no"?><!DOCTYPE svg PUBLIC "-//W3C//DTD SVG 1.1//EN" "http://www.w3.org/Graphics/SVG/1.1/DTD/svg11.dtd"><svg t="1750993044835" class="icon" viewBox="0 0 1024 1024" version="1.1" xmlns="http://www.w3.org/2000/svg" p-id="8937" xmlns:xlink="http://www.w3.org/1999/xlink" width="200" height="200"><path d="M930.133333 317.866667c0-91.733333-74.666667-166.4-166.4-166.4-40.533333 0-76.8 14.933333-104.533333 38.4-8.533333-85.333333-78.933333-151.466667-166.4-151.466667s-157.866667 66.133333-166.4 151.466667c-27.733333-23.466667-66.133333-38.4-104.533333-38.4-91.733333 0-166.4 74.666667-166.4 166.4 0 89.6 70.4 162.133333 157.866666 166.4l51.2 428.8h456.533334l51.2-428.8c87.466667-4.266667 157.866667-76.8 157.866666-166.4z" fill="#FFD2DA" p-id="8938"></path><path d="M804.266667 475.733333c-49.066667 0-98.133333-21.333333-130.133334-57.6-4.266667-4.266667-4.266667-10.666667 0-14.933333 4.266667-4.266667 10.666667-4.266667 14.933334 0 29.866667 32 72.533333 51.2 115.2 51.2 85.333333 0 155.733333-70.4 155.733333-155.733333s-70.4-155.733333-155.733333-155.733334c-36.266667 0-70.4 12.8-98.133334 34.133334-2.133333 2.133333-6.4 2.133333-10.666666 2.133333-4.266667-2.133333-6.4-4.266667-6.4-8.533333-6.4-81.066667-74.666667-142.933333-155.733334-142.933334S384 89.6 377.6 170.666667c0 4.266667-2.133333 6.4-6.4 8.533333-4.266667 2.133333-8.533333 0-10.666667-2.133333-27.733333-23.466667-61.866667-34.133333-98.133333-34.133334C177.066667 142.933333 106.666667 213.333333 106.666667 298.666667s70.4 155.733333 155.733333 155.733333c46.933333 0 89.6-19.2 119.466667-55.466667 4.266667-4.266667 10.666667-4.266667 14.933333-2.133333 4.266667 4.266667 4.266667 10.666667 2.133333 14.933333-34.133333 40.533333-83.2 64-136.533333 64C164.266667 475.733333 85.333333 396.8 85.333333 298.666667c0-98.133333 78.933333-177.066667 177.066667-177.066667 34.133333 0 68.266667 10.666667 98.133333 29.866667 12.8-87.466667 85.333333-147.2 172.8-147.2s157.866667 59.733333 174.933334 142.933333c27.733333-19.2 61.866667-29.866667 98.133333-29.866667 98.133333 0 177.066667 78.933333 177.066667 177.066667-2.133333 100.266667-81.066667 181.333333-179.2 181.333333z" fill="#5C545D" p-id="8939"></path><path d="M522.666667 919.466667c-8.533333 0-17.066667-6.4-17.066667-17.066667V526.933333c0-8.533333 6.4-17.066667 17.066667-17.066666s17.066667 6.4 17.066666 17.066666v375.466667c-2.133333 8.533333-8.533333 17.066667-17.066666 17.066667z" fill="#FFFFFF" p-id="8940"></path><path d="M648.533333 919.466667c-8.533333 0-17.066667-6.4-17.066666-17.066667V672c0-8.533333 6.4-17.066667 17.066666-17.066667s17.066667 6.4 17.066667 17.066667v230.4c-2.133333 8.533333-8.533333 17.066667-17.066667 17.066667z" fill="#FFFFFF" p-id="8941"></path><path d="M396.8 919.466667c-8.533333 0-17.066667-6.4-17.066667-17.066667V672c0-8.533333 6.4-17.066667 17.066667-17.066667s17.066667 6.4 17.066667 17.066667v230.4c0 8.533333-8.533333 17.066667-17.066667 17.066667z" fill="#FFFFFF" p-id="8942"></path><path d="M761.6 902.4H305.066667c-6.4 0-10.666667-4.266667-10.666667-8.533333l-51.2-420.266667c-89.6-8.533333-160-85.333333-160-177.066667 0-98.133333 78.933333-177.066667 177.066667-177.066666 34.133333 0 68.266667 10.666667 98.133333 29.866666 14.933333-85.333333 87.466667-145.066667 174.933333-145.066666s157.866667 59.733333 174.933334 142.933333c27.733333-19.2 61.866667-29.866667 98.133333-29.866667 98.133333 0 177.066667 78.933333 177.066667 177.066667 0 91.733333-70.4 168.533333-160 177.066667l-51.2 420.266666c-2.133333 6.4-6.4 10.666667-10.666667 10.666667z m-448-21.333333h437.333333l51.2-418.133334c0-4.266667 4.266667-8.533333 10.666667-8.533333 83.2-4.266667 149.333333-72.533333 149.333333-155.733333 0-85.333333-70.4-155.733333-155.733333-155.733334-36.266667 0-70.4 12.8-98.133333 34.133334-2.133333 2.133333-6.4 2.133333-10.666667 2.133333-4.266667-2.133333-6.4-4.266667-6.4-8.533333-6.4-81.066667-74.666667-142.933333-155.733333-142.933334s-149.333333 61.866667-155.733334 142.933334c0 4.266667-2.133333 6.4-6.4 8.533333-4.266667 2.133333-8.533333 0-10.666666-2.133333-27.733333-23.466667-61.866667-34.133333-98.133334-34.133334-85.333333 0-155.733333 70.4-155.733333 155.733334 0 83.2 66.133333 151.466667 149.333333 155.733333 6.4 0 10.666667 4.266667 10.666667 10.666667l44.8 416z" fill="#5C545D" p-id="8943"></path><path d="M262.4 913.066667l12.8 104.533333h430.933333l12.8-104.533333z" fill="#F18FCE" p-id="8944"></path><path d="M748.8 1006.933333H317.866667c-6.4 0-10.666667-4.266667-10.666667-8.533333l-12.8-104.533333c0-2.133333 0-6.4 2.133333-8.533334 2.133333-2.133333 4.266667-4.266667 8.533334-4.266666h456.533333c2.133333 0 6.4 2.133333 8.533333 4.266666 2.133333 2.133333 2.133333 4.266667 2.133334 8.533334l-12.8 104.533333c0 4.266667-6.4 8.533333-10.666667 8.533333z m-422.4-21.333333h411.733333l10.666667-83.2H315.733333l10.666667 83.2z" fill="#5C545D" p-id="8945"></path></svg>