<?xml version="1.0" standalone="no"?><!DOCTYPE svg PUBLIC "-//W3C//DTD SVG 1.1//EN" "http://www.w3.org/Graphics/SVG/1.1/DTD/svg11.dtd"><svg t="1750992009610" class="icon" viewBox="0 0 1024 1024" version="1.1" xmlns="http://www.w3.org/2000/svg" p-id="4935" xmlns:xlink="http://www.w3.org/1999/xlink" width="200" height="200"><path d="M284.245333 960.064L64.042667 739.84 739.754667 64.149333 959.957333 284.373333z" fill="#FFA000" p-id="4936"></path><path d="M486.464 516.010667l-99.541333-99.541334 30.165333-30.165333 99.541333 99.541333zM529.344 388.224l-55.808-55.808 30.165333-30.165333 55.808 55.808zM657.152 345.344l-99.541333-99.541333 30.165333-30.165334 99.541333 99.541334zM643.306667 160.917333l30.186666-30.165333 55.786667 55.808-30.165333 30.165333zM187.946667 729.557333l-55.808-55.808 30.165333-30.165333 55.808 55.808zM315.754667 686.677333l-99.541334-99.541333 30.165334-30.165333 99.541333 99.541333zM358.656 558.890667l-55.808-55.808 30.165333-30.165334 55.808 55.808z" fill="#9E6400" p-id="4937"></path></svg>