<?xml version="1.0" standalone="no"?><!DOCTYPE svg PUBLIC "-//W3C//DTD SVG 1.1//EN" "http://www.w3.org/Graphics/SVG/1.1/DTD/svg11.dtd"><svg t="1751005290681" class="icon" viewBox="0 0 1024 1024" version="1.1" xmlns="http://www.w3.org/2000/svg" p-id="40599" xmlns:xlink="http://www.w3.org/1999/xlink" width="200" height="200"><path d="M975.38048 932.74112L887.36256 847.872c35.62496-69.67808 23.5776-157.16352-35.62496-213.73952-72.29952-69.67808-187.02848-67.06688-256.71168 5.23776-69.67808 72.28928-67.05664 187.01824 5.23776 256.69632 62.34624 59.7248 156.11904 66.52928 225.27488 20.96128l85.9136 82.7648c18.33984 17.8176 47.67232 17.29024 65.47968-1.57184 17.3056-18.32448 16.77312-47.67232-1.55136-65.47968z m-330.05056-83.81952c-46.10048-44.52864-47.67232-117.87264-3.14368-164.5056 44.52864-46.10048 117.87264-47.67232 164.5056-3.14368 46.10048 44.52864 47.66208 117.88288 3.13344 164.5056-44.53376 46.1056-118.39488 47.14496-164.49536 3.14368z" fill="#FAC500" p-id="40600"></path><path d="M495.49312 843.15648H195.82976v-55.5264h286.5664a201.26208 201.26208 0 0 1-1.57184-25.14944c0-30.3872 5.76-59.19744 15.71328-85.92384H167.0144c-14.67392 0-26.72128-12.5696-26.72128-27.76576 0-15.19104 12.04736-27.76576 26.72128-27.76576h360.43776c35.61472-48.72192 89.57952-83.81952 151.92576-94.29504V177.82272h53.43232v345.76384c18.33984 1.04448 36.67968 4.18816 53.9648 8.90368V177.82272c0-30.3872-24.09472-55.53664-53.9648-55.53664h-53.43232V66.75968c0-30.3872-24.09984-55.53664-53.9648-55.53664H88.43264c-29.86496 0-53.9648 25.14944-53.9648 55.53664v665.33376c0 30.3872 24.09472 55.53664 53.9648 55.53664h53.43232v55.5264c0 30.3872 24.09472 55.53664 53.9648 55.53664h327.95136c-11.52-17.29024-21.4784-35.63008-28.288-55.53664zM327.84384 122.28608h216.89856c14.66368 0 26.71104 12.57984 26.71104 27.76064 0 15.19104-12.04736 27.776-26.71104 27.776H327.84384c-14.66368 0-26.71104-12.57984-26.71104-27.776 0-15.1808 12.04736-27.76064 26.71104-27.76064zM167.0144 288.36352h378.24512c14.67392 0 26.72128 12.5696 26.72128 27.76064 0 15.19104-12.04736 27.76576-26.72128 27.76576H167.0144c-14.67392 0-26.72128-12.5696-26.72128-27.76576-0.52224-15.19104 12.04736-27.76064 26.72128-27.76064z m0 166.58944h378.24512c14.67392 0 26.72128 12.57984 26.72128 27.776 0 15.19104-12.04736 27.76064-26.72128 27.76064H167.0144c-14.67392 0-26.72128-12.5696-26.72128-27.76064-0.52224-15.19616 12.04736-27.76576 26.72128-27.776z" fill="#2EB5A5" p-id="40601"></path></svg>