<?xml version="1.0" standalone="no"?><!DOCTYPE svg PUBLIC "-//W3C//DTD SVG 1.1//EN" "http://www.w3.org/Graphics/SVG/1.1/DTD/svg11.dtd"><svg t="1751005187841" class="icon" viewBox="0 0 1024 1024" version="1.1" xmlns="http://www.w3.org/2000/svg" p-id="34496" xmlns:xlink="http://www.w3.org/1999/xlink" width="200" height="200"><path d="M388.471012 248.348578m-207.418077 0a207.418077 207.418077 0 1 0 414.836154 0 207.418077 207.418077 0 1 0-414.836154 0Z" fill="#D2EAFF" p-id="34497"></path><path d="M70.798704 947.301404A450.419878 450.419878 0 0 1 237.839395 626.863522l5.899892-4.424919a33.924379 33.924379 0 0 1 18.437162-5.162406c22.308967 0 35.768095 10.877926 35.768095 29.49946a36.874325 36.874325 0 0 1-13.090385 27.840115l-5.162405 3.871805C197.646381 737.486496 151.369103 829.672308 142.334894 948.407634v4.240547a36.874325 36.874325 0 0 1-35.583724 36.874325 36.874325 36.874325 0 0 1-35.768095-34.846237z m115.232265-612.851278A328.550234 328.550234 0 0 1 512.184372 4.609291a330.578322 330.578322 0 0 1 209.814908 582.42996 450.051134 450.051134 0 0 1 231.57076 364.871444v7.92798a30.421318 30.421318 0 1 1-60.658265 0v-7.374865A381.46489 381.46489 0 0 0 662.262874 626.863522a380.35866 380.35866 0 0 1-150.078502 36.874325 320.437883 320.437883 0 0 1-141.413036-32.818149l-33.002521-19.912136-26.918257-18.437162a329.472092 329.472092 0 0 1-124.819589-258.120274z m326.337774 263.651422a263.651422 263.651422 0 1 0-260.885848-263.651422 262.729564 262.729564 0 0 0 260.885848 263.651422z" fill="#2E85ED" p-id="34498"></path><path d="M529.330933 1010.172128a29.868203 29.868203 0 0 1-42.036731 1.10623l-76.698595-73.74865a63.792582 63.792582 0 0 1-16.96219-50.149081L421.104789 719.049334a36.874325 36.874325 0 0 1 34.477494-29.49946h103.063738a34.846237 34.846237 0 0 1 33.555635 29.49946l21.202737 169.068779a72.273677 72.273677 0 0 1-16.777818 51.255312z m-75.776738-142.519265a63.239467 63.239467 0 0 0 17.330933 49.96471l14.74973 14.196615a29.49946 29.49946 0 0 0 42.03673-1.10623l10.693554-11.43104a71.904933 71.904933 0 0 0 16.777818-51.255312L542.974433 774.360821a34.661865 34.661865 0 0 0-33.555636-29.49946h-6.084263a36.874325 36.874325 0 0 0-34.477494 29.49946l-15.302845 93.660785z" fill="#2E85ED" p-id="34499"></path></svg>