<?xml version="1.0" standalone="no"?><!DOCTYPE svg PUBLIC "-//W3C//DTD SVG 1.1//EN" "http://www.w3.org/Graphics/SVG/1.1/DTD/svg11.dtd"><svg t="1751005219635" class="icon" viewBox="0 0 1024 1024" version="1.1" xmlns="http://www.w3.org/2000/svg" p-id="36852" xmlns:xlink="http://www.w3.org/1999/xlink" width="200" height="200"><path d="M838.06220246 759.65586853c-1.54495239-0.30899048-3.08990479-0.46348572-4.7121048-0.46348572H252.60249328c-11.97338105 0-19.38915253-13.05484772-13.28659057-23.32878112l40.24600983-67.97790528c2.7809143-4.7121048 7.80200959-7.57026672 13.28659057-7.57026672H803.99600219c15.06328583 0 27.88639069-10.81466675 30.43556214-25.64620972l66.35570526-383.14819336c3.24440003-18.92566681-11.27815247-36.15188599-30.43556214-36.15188599H249.66708374c-7.49301911 0-13.90457153-5.40733338-15.21778107-12.74585724L223.78913116 141.98390198c-2.62641907-14.75429535-15.44952393-25.49171448-30.51280975-25.49171448H141.75215911C128.07933044 116.4921875 117.03292083 127.5385971 117.03292083 141.21142578s11.04640961 24.71923828 24.71923829 24.71923828h23.09703827c7.49301911 0 13.90457153 5.40733338 15.21778107 12.74585725L256.2331314 610.87695313 191.96311187 716.93793488c-7.18402863 11.81888581-12.90035248 24.33300019-17.07172393 37.31060028-1.46770478 4.55760956-4.94384766 8.11100006-9.4242096 9.81044768C137.3490448 774.4874115 117.2646637 801.52407837 117.2646637 833.27285004c0 40.78674317 33.0619812 73.77147675 73.77147675 73.77147674 40.78674317 0 73.77147675-33.0619812 73.77147674-73.77147675 0-2.54917146-0.15449524-5.02109528-0.38623811-7.4930191-0.92697143-9.19246674 6.17980958-17.14897156 15.37227631-17.14897155h464.79892732c9.19246674 0 16.29924774 7.95650482 15.3722763 17.14897155-0.23174287 2.47192383-0.3862381 4.94384766-0.38623809 7.49301911 0 40.78674317 33.0619812 73.77147675 73.77147674 73.77147674 40.78674317 0 73.77147675-33.0619812 73.77147675-73.77147675 0-39.16454316-30.51280976-71.22230529-69.05937195-73.6169815zM248.58561706 282.9608078c-1.69944763-9.42420959 5.63907623-18.15319062 15.21778107-18.15319061h567.30651856c9.57870484 0 16.9172287 8.6517334 15.21778107 18.15319061l-55.54103851 315.17028808c-1.31320954 7.41577148-7.72476196 12.74585724-15.21778108 12.74585725H313.24187469c-3.9396286 0-7.33852387-2.85816193-8.03375244-6.72054291L248.58561706 282.9608078z m-32.83023834 550.31204223c0 13.67282868-11.04640961 24.71923828-24.71923828 24.71923828s-24.71923828-11.04640961-24.71923828-24.71923828c0-13.13209534 10.19668579-23.79226685 23.09703827-24.64199066h3.24440002c12.90035248 0.84972382 23.09703828 11.58714294 23.09703827 24.64199066z m642.31395722 0c0 13.67282868-11.04640961 24.71923828-24.71923828 24.71923828s-24.71923828-11.04640961-24.71923828-24.71923828c0-13.13209534 10.19668579-23.79226685 23.09703826-24.64199066h2.78091431c13.13209534 0.54073334 23.56052399 11.43264771 23.56052399 24.64199066z" fill="#523EFF" p-id="36853"></path></svg>